<svg width="1010" height="975" viewBox="0 0 1010 975" fill="none" xmlns="http://www.w3.org/2000/svg">
<ellipse cx="44.3096" cy="272.585" rx="34.5" ry="33.5" fill="#D9D9D9"/>
<path d="M60.8096 268.585C75.8096 263.085 117.01 254.385 161.81 263.585" stroke="black" stroke-width="10" stroke-linecap="round"/>
<path d="M212.31 291.085C190.643 286.085 139.31 277.585 107.31 283.585" stroke="black" stroke-width="10" stroke-linecap="round"/>
<path d="M121.31 236.085C146.31 234.085 205.91 231.285 244.31 236.085" stroke="black" stroke-width="10" stroke-linecap="round"/>
<path d="M49.3099 311.086C28.6432 311.752 -8.19011 300.386 9.80989 249.586C16.1432 239.752 35.4098 223.686 61.8098 238.086C68.3098 240.752 81.5098 252.585 82.3098 278.585" stroke="black" stroke-width="10" stroke-linecap="round"/>
<path d="M74.8096 290.085C75.9762 295.585 75.2096 306.085 62.8096 304.085" stroke="black" stroke-width="10" stroke-linecap="round"/>
<path d="M219.81 580.086C198.21 577.686 193.143 595.752 193.31 605.086C194.91 607.086 193.31 621.586 192.31 628.585C189.91 636.185 195.643 648.419 198.81 653.585C202.01 657.585 214.81 656.252 220.81 655.085C225.21 655.885 236.977 639.085 242.31 630.585C246.31 619.785 245.977 606.085 245.31 600.585C238.11 582.585 225.31 579.419 219.81 580.086Z" fill="#C0AD92"/>
<path d="M217.31 701.085C221.71 712.685 227.81 712.919 230.31 711.585C234.71 693.585 268.81 666.085 285.31 654.585L273.81 642.085C252.21 649.285 227.143 684.419 217.31 701.085Z" fill="#C0AD92"/>
<path d="M91.81 660.586C85.01 659.386 87.6433 650.086 89.81 645.586C100.61 631.586 125.977 632.752 137.31 635.086L133.81 639.586C130.21 641.986 121.643 644.586 117.81 645.586C111.01 645.586 101.643 653.252 97.8101 657.086C95.8101 659.886 92.9767 660.586 91.81 660.586Z" fill="#D9D9D9"/>
<path d="M94.8096 589.585C88.8096 598.785 79.9762 596.419 76.3096 594.085C76.3096 589.285 80.9762 584.085 83.3096 582.085C87.3096 579.285 92.6429 585.919 94.8096 589.585Z" fill="#C0AD92"/>
<path d="M411.81 895.585C423.143 895.419 447.81 899.985 455.81 919.585C458.976 927.085 460.61 944.285 441.81 953.085C436.643 953.252 426.01 951.585 424.81 943.585C425.81 940.085 426.61 931.485 421.81 925.085C417.31 921.419 404.91 913.785 391.31 912.585C383.976 910.919 369.71 905.185 371.31 895.585C372.476 892.752 379.81 883.785 399.81 870.585" stroke="black" stroke-width="10" stroke-linecap="round"/>
<path d="M533.31 778.585C534.643 790.585 531.466 816.585 521.31 830.585C508.976 847.585 481.41 882.785 469.81 887.585C460.143 894.085 438.61 906.785 429.81 905.585" stroke="black" stroke-width="10" stroke-linecap="round"/>
<path d="M417.809 770.585C407.143 774.585 385.81 791.585 395.809 820.585C398.81 827.085 405.81 839.085 408.81 842.085C411.143 844.752 415.51 851.785 414.31 858.585" stroke="black" stroke-width="10" stroke-linecap="round"/>
<path d="M314.81 924.085C316.476 929.252 319.11 941.585 316.31 949.585" stroke="black" stroke-width="10" stroke-linecap="round"/>
<path d="M335.81 807.085C337.976 823.419 334.81 862.185 304.81 886.585" stroke="black" stroke-width="10" stroke-linecap="round"/>
<path d="M304.309 869.085C316.143 877.752 338.009 902.185 330.809 930.585C326.476 938.419 315.109 949.885 304.309 933.085C301.809 926.585 296.109 912.885 293.309 910.085C284.809 902.752 267.509 886.485 266.309 880.085C265.143 874.919 264.709 860.485 272.309 844.085C273.976 840.585 277.01 831.185 275.81 821.585" stroke="black" stroke-width="10" stroke-linecap="round"/>
<path d="M220.81 737.585C221.643 750.752 230.01 781.085 256.81 797.085" stroke="black" stroke-width="10" stroke-linecap="round"/>
<path d="M529.81 730.585C538.143 722.085 569.81 711.085 643.31 728.085C652.81 730.585 695.91 730.085 716.31 708.085M611.81 746.585C630.976 747.419 675.21 737.285 698.81 690.085" stroke="black" stroke-width="10" stroke-linecap="round"/>
<path d="M536.81 762.085C564.476 779.585 633.81 800.385 689.81 743.585" stroke="black" stroke-width="10" stroke-linecap="round"/>
<path d="M314.81 651.585C331.143 654.252 366.91 660.685 379.31 665.085C407.643 670.752 467.91 682.385 482.31 683.585C507.476 688.752 558.81 709.285 562.81 750.085" stroke="black" stroke-width="10" stroke-linecap="round"/>
<path d="M207.81 716.585C217.143 696.419 245.91 651.585 282.31 637.585M265.81 633.085C273.143 640.752 288.41 656.885 290.81 660.085" stroke="black" stroke-width="10" stroke-linecap="round"/>
<path d="M298.81 648.085C280.31 656.585 240.21 682.485 227.81 718.085" stroke="black" stroke-width="10" stroke-linecap="round"/>
<path d="M135.31 565.585C140.31 555.752 159.01 540.185 193.81 556.585" stroke="black" stroke-width="10" stroke-linecap="round"/>
<path d="M220.31 570.085C227.31 572.085 242.21 583.185 245.81 601.585C246.143 615.419 241.51 645.285 220.31 654.085C212.81 657.199 202.81 657.585 197.31 651.585C191.81 646.585 192.415 627.085 194.31 615.085C195.81 605.585 188.31 593.085 186.81 585.085C186.81 579.085 191.51 575.085 196.31 575.085" stroke="black" stroke-width="10" stroke-linecap="round"/>
<path d="M159.81 665.585C165.976 669.919 180.11 679.085 187.31 681.085C189.81 682.085 195.91 686.185 200.31 694.585" stroke="black" stroke-width="10" stroke-linecap="round"/>
<path d="M135.81 579.585C134.643 581.752 132.41 586.885 132.81 590.085" stroke="black" stroke-width="10" stroke-linecap="round"/>
<path d="M96.3099 591.085C95.4765 587.252 87.8098 579.085 80.8098 583.585C75.8098 587.585 73.6099 593.285 80.8099 600.085M122.31 652.585C128.476 651.919 142.71 650.985 150.31 652.585" stroke="black" stroke-width="10" stroke-linecap="round"/>
<path d="M83.8096 609.585C94.9762 620.419 124.11 640.185 151.31 632.585" stroke="black" stroke-width="10" stroke-linecap="round"/>
<path d="M125.31 633.085C118.143 632.085 101.01 633.285 89.8096 646.085" stroke="black" stroke-width="10" stroke-linecap="round"/>
<path d="M773.31 57.0853C750.91 53.4853 745.643 39.5853 745.81 33.0853C745.522 30.2852 759.69 19.5854 766.81 14.5854C777.61 6.58545 793.977 5.25207 800.81 5.58538C817.21 3.58538 828.977 9.75202 832.81 13.0853C843.21 12.6853 855.477 34.9187 860.31 46.0853C866.71 54.0853 860.977 71.752 857.31 79.5853C849.71 91.9853 839.477 95.0853 835.31 95.0853C820.51 93.8853 813.477 76.5853 811.81 68.0853C809.01 65.6853 804.977 52.4187 803.31 46.0853L773.31 57.0853Z" fill="#C0AD92"/>
<path d="M931.31 503.085C904.51 518.685 803.81 519.585 756.81 518.085L769.31 853.585L755.31 891.085L836.31 905.585L850.81 668.085L931.31 879.585C930.91 883.985 918.476 892.419 912.31 896.085C913.11 896.885 949.643 902.752 967.81 905.585C980.21 905.585 981.976 892.252 981.31 885.585C983.31 875.185 966.81 802.585 958.31 767.585C953.11 747.585 931.81 623.919 921.81 564.585C927.41 559.385 930.476 521.419 931.31 503.085Z" fill="#D9D9D9"/>
<path d="M994.31 540.085C996.477 542.585 1000.31 549.285 998.31 556.085C995.31 560.252 986.81 569.585 976.81 573.585C972.643 574.919 963.11 577.485 958.31 577.085C955.143 576.919 948.31 575.585 946.31 571.585C945.643 568.252 945.71 561.585 951.31 561.585" stroke="black" stroke-width="10" stroke-linecap="round"/>
<path d="M980.81 333.085C990.31 355.252 1006.81 407.085 1004.81 436.085C1004.48 453.252 1000.71 494.685 988.31 523.085" stroke="black" stroke-width="10" stroke-linecap="round"/>
<path d="M945.309 527.585C941.643 528.752 933.909 532.685 932.309 539.085C931.809 541.252 932.409 546.885 938.809 552.085" stroke="black" stroke-width="10" stroke-linecap="round"/>
<path d="M930.81 363.085C938.81 380.085 952.878 418.085 955.31 433.585C957.976 450.585 962.31 490.385 958.31 513.585" stroke="black" stroke-width="10" stroke-linecap="round"/>
<path d="M978.31 304.585C959.976 318.419 919.91 346.085 906.31 346.085" stroke="black" stroke-width="10" stroke-linecap="round"/>
<path d="M872.31 193.085C881.976 196.752 900.31 202.585 905.31 206.585L967.31 283.585" stroke="black" stroke-width="10" stroke-linecap="round"/>
<path d="M983.81 903.085C984.976 915.585 983.31 941.585 963.31 957.585C952.81 966.585 931.31 969.97 926.31 969.585C919.81 969.085 903.81 965.985 897.81 961.585" stroke="black" stroke-width="10" stroke-linecap="round"/>
<path d="M920.81 920.585C912.976 920.919 897.31 925.585 897.31 938.085C897.81 944.585 900.81 946.153 906.31 948.585C914.976 952.419 936.61 958.185 953.81 950.585" stroke="black" stroke-width="10" stroke-linecap="round"/>
<path d="M802.81 550.585L925.81 868.585" stroke="black" stroke-width="10" stroke-linecap="round"/>
<path d="M928.81 606.585L976.31 866.085" stroke="black" stroke-width="10" stroke-linecap="round"/>
<path d="M898.81 886.585H953.31" stroke="black" stroke-width="10" stroke-linecap="round"/>
<path d="M923.81 901.085L952.81 903.085" stroke="black" stroke-width="10" stroke-linecap="round"/>
<path d="M829.81 905.085C830.81 906.419 833.31 909.085 835.31 909.085C837.81 909.085 848.31 641.585 848.81 632.085" stroke="black" stroke-width="10" stroke-linecap="round"/>
<path d="M732.31 947.585C738.81 953.085 758.21 964.485 783.81 966.085C793.976 967.752 816.01 966.685 822.81 949.085" stroke="black" stroke-width="10" stroke-linecap="round"/>
<path d="M839.81 957.085C822.976 963.252 777.31 973.485 729.31 965.085L720.81 964.085C712.309 963.085 695.309 953.586 692.309 948.585C689.81 944.418 692.938 938.038 695.31 934.085C698.31 929.085 703.509 922.385 712.309 921.585C717.143 921.252 728.509 920.785 735.309 921.585" stroke="black" stroke-width="10" stroke-linecap="round"/>
<path d="M745.31 909.585C750.976 914.752 762.41 925.385 762.81 926.585" stroke="black" stroke-width="10" stroke-linecap="round"/>
<path d="M758.31 904.085C763.81 908.252 775.21 917.285 776.81 920.085" stroke="black" stroke-width="10" stroke-linecap="round"/>
<path d="M751.31 851.585L794.81 879.085" stroke="black" stroke-width="10" stroke-linecap="round"/>
<path d="M747.81 887.085C767.476 893.419 808.31 904.085 811.81 904.085" stroke="black" stroke-width="10" stroke-linecap="round"/>
<path d="M429.31 233.085C415.643 235.752 386.11 247.785 377.31 274.585C376.884 275.88 376.31 277.985 382.31 277.585C389.81 277.085 407.81 266.085 411.81 260.085" stroke="black" stroke-width="10" stroke-linecap="round"/>
<path d="M476.31 306.085C469.477 305.585 451.81 296.585 448.31 292.585C446.369 290.367 446.01 289.585 444.81 289.585C442.81 289.585 440.81 296.585 436.81 298.585C433.404 300.288 429.31 303.585 422.81 296.585C416.31 289.585 430.81 273.085 430.81 272.585" stroke="black" stroke-width="10" stroke-linecap="round"/>
<path d="M443.81 236.085C454.143 239.585 474.71 253.385 474.31 280.585" stroke="black" stroke-width="10" stroke-linecap="round"/>
<path d="M490.81 301.085C512.143 307.419 573.01 317.985 645.81 309.585" stroke="black" stroke-width="10" stroke-linecap="round"/>
<path d="M454.81 258.085C486.476 263.419 568.71 268.585 644.31 246.585" stroke="black" stroke-width="10" stroke-linecap="round"/>
<path d="M803.81 227.085C808.143 231.419 815.778 240.585 819.81 240.585C823.31 240.585 846.476 205.085 858.31 187.085" stroke="black" stroke-width="10" stroke-linecap="round"/>
<path d="M754.31 494.085C761.643 606.919 776.71 834.285 778.31 841.085" stroke="black" stroke-width="10" stroke-linecap="round"/>
<path d="M835.81 152.585L838.81 184.085C838.81 185.085 837.31 187.71 835.81 189.585C833.81 192.085 772.31 262.585 769.31 264.085" stroke="black" stroke-width="10" stroke-linecap="round"/>
<path d="M682.81 321.085L723.81 333.085C723.81 333.085 729.01 334.685 729.81 339.085C730.61 343.485 737.476 415.585 740.81 451.085M720.81 510.585C743.143 517.419 809.81 526.985 897.81 510.585" stroke="black" stroke-width="10" stroke-linecap="round"/>
<path d="M652.81 227.585C681.31 220.419 738.91 206.085 741.31 206.085" stroke="black" stroke-width="10" stroke-linecap="round"/>
<path d="M668.81 335.585V212.585" stroke="black" stroke-width="10" stroke-linecap="round"/>
<path d="M768.81 191.585C772.976 202.752 781.31 225.685 781.31 228.085" stroke="black" stroke-width="10" stroke-linecap="round"/>
<path d="M758.31 184.085C757.643 195.252 756.41 217.985 756.81 219.585" stroke="black" stroke-width="10" stroke-linecap="round"/>
<path d="M740.31 105.085C738.477 126.085 741.11 169.985 766.31 177.585" stroke="black" stroke-width="10" stroke-linecap="round"/>
<path d="M761.81 118.085L768.81 123.585" stroke="black" stroke-width="10" stroke-linecap="round"/>
<path d="M757.81 135.585C764.643 138.585 782.11 141.785 797.31 130.585" stroke="black" stroke-width="10" stroke-linecap="round"/>
<path d="M789.31 136.585C793.143 145.085 795.31 160.685 775.31 161.085" stroke="black" stroke-width="10" stroke-linecap="round"/>
<path d="M746.81 82.5854V93.0854" stroke="black" stroke-width="10" stroke-linecap="round"/>
<path d="M786.81 81.5854V93.0854" stroke="black" stroke-width="10" stroke-linecap="round"/>
<path d="M742.31 35.5854C749.643 24.7521 772.51 3.48545 805.31 5.08545C815.81 5.41878 839.91 10.7854 852.31 29.5854C856.643 36.7521 864.61 54.0854 861.81 66.0854C860.976 70.4188 856.91 81.3854 847.31 90.5854" stroke="black" stroke-width="10" stroke-linecap="round"/>
<path d="M812.81 94.5854C820.976 94.0854 838.31 93.3854 842.31 94.5854" stroke="black" stroke-width="10" stroke-linecap="round"/>
<path d="M732.31 48.5854C735.143 52.7521 746.51 60.4854 769.31 58.0854C777.476 57.2521 794.51 52.4854 797.31 40.0854" stroke="black" stroke-width="10" stroke-linecap="round"/>
<path d="M810.81 48.5854C810.81 61.5854 814.01 88.3854 828.81 93.5854" stroke="black" stroke-width="10" stroke-linecap="round"/>
<path d="M838.81 131.585C847.81 132.419 865.51 128.485 864.31 106.085C864.143 103.752 861.81 98.6854 853.81 97.0854C849.31 95.0854 839.71 94.2854 837.31 107.085" stroke="black" stroke-width="10" stroke-linecap="round"/>
</svg>
