<svg width="38" height="38" viewBox="0 0 38 38" fill="none" xmlns="http://www.w3.org/2000/svg">
<path d="M31.7278 31.7281C24.6984 38.7575 13.3014 38.7575 6.27197 31.7281C12.8563 25.5001 25.4999 25.5001 31.7278 31.7281Z" fill="black" stroke="black" stroke-width="1.5"/>
<path d="M31.7279 6.27208C24.6985 -0.75736 13.3015 -0.757359 6.27208 6.27208C-0.75736 13.3015 -0.75736 24.6985 6.27208 31.7279C12.8564 25.5 25.5 25.5 31.7279 31.7279C38.7574 24.6985 38.7574 13.3015 31.7279 6.27208Z" fill="white" stroke="black" stroke-width="1.5"/>
<path d="M24.6569 8.34315C21.5327 5.21895 16.4673 5.21895 13.3431 8.34315C10.219 11.4673 10.219 16.5327 13.3431 19.6569C16.4673 22.781 21.5327 22.781 24.6569 19.6569C27.781 16.5327 27.781 11.4673 24.6569 8.34315Z" fill="black" stroke="black" stroke-width="1.5"/>
</svg>
