<svg width="1006" height="971" viewBox="0 0 1006 971" fill="none" xmlns="http://www.w3.org/2000/svg">
<ellipse cx="42.3096" cy="270.585" rx="34.5" ry="33.5" fill="#D9D9D9"/>
<path d="M58.8096 266.585C73.8096 261.085 115.01 252.385 159.81 261.585" stroke="black" stroke-width="5" stroke-linecap="round"/>
<path d="M210.31 289.085C188.643 284.085 137.31 275.585 105.31 281.585" stroke="black" stroke-width="5" stroke-linecap="round"/>
<path d="M119.31 234.085C144.31 232.085 203.91 229.285 242.31 234.085" stroke="black" stroke-width="5" stroke-linecap="round"/>
<path d="M47.3099 309.086C26.6432 309.752 -10.1901 298.386 7.80989 247.586C14.1432 237.752 33.4098 221.686 59.8098 236.086C66.3098 238.752 79.5098 250.585 80.3098 276.585" stroke="black" stroke-width="5" stroke-linecap="round"/>
<path d="M72.8096 288.085C73.9762 293.585 73.2096 304.085 60.8096 302.085" stroke="black" stroke-width="5" stroke-linecap="round"/>
<path d="M217.81 578.086C196.21 575.686 191.143 593.752 191.31 603.086C192.91 605.086 191.31 619.586 190.31 626.585C187.91 634.185 193.643 646.419 196.81 651.585C200.01 655.585 212.81 654.252 218.81 653.085C223.21 653.885 234.977 637.085 240.31 628.585C244.31 617.785 243.977 604.085 243.31 598.585C236.11 580.585 223.31 577.419 217.81 578.086Z" fill="#C0AD92"/>
<path d="M215.31 699.085C219.71 710.685 225.81 710.919 228.31 709.585C232.71 691.585 266.81 664.085 283.31 652.585L271.81 640.085C250.21 647.285 225.143 682.419 215.31 699.085Z" fill="#C0AD92"/>
<path d="M89.81 658.586C83.01 657.386 85.6433 648.086 87.81 643.586C98.61 629.586 123.977 630.752 135.31 633.086L131.81 637.586C128.21 639.986 119.643 642.586 115.81 643.586C109.01 643.586 99.6434 651.252 95.8101 655.086C93.8101 657.886 90.9767 658.586 89.81 658.586Z" fill="#D9D9D9"/>
<path d="M92.8096 587.585C86.8096 596.785 77.9762 594.419 74.3096 592.085C74.3096 587.285 78.9762 582.085 81.3096 580.085C85.3096 577.285 90.6429 583.919 92.8096 587.585Z" fill="#C0AD92"/>
<path d="M409.81 893.585C421.143 893.419 445.81 897.985 453.81 917.585C456.976 925.085 458.61 942.285 439.81 951.085C434.643 951.252 424.01 949.585 422.81 941.585C423.81 938.085 424.61 929.485 419.81 923.085C415.31 919.419 402.91 911.785 389.31 910.585C381.976 908.919 367.71 903.185 369.31 893.585C370.476 890.752 377.81 881.785 397.81 868.585" stroke="black" stroke-width="5" stroke-linecap="round"/>
<path d="M531.31 776.585C532.643 788.585 529.466 814.585 519.31 828.585C506.976 845.585 479.41 880.785 467.81 885.585C458.143 892.085 436.61 904.785 427.81 903.585" stroke="black" stroke-width="5" stroke-linecap="round"/>
<path d="M415.809 768.585C405.143 772.585 383.81 789.585 393.809 818.585C396.81 825.085 403.81 837.085 406.81 840.085C409.143 842.752 413.51 849.785 412.31 856.585" stroke="black" stroke-width="5" stroke-linecap="round"/>
<path d="M312.81 922.085C314.476 927.252 317.11 939.585 314.31 947.585" stroke="black" stroke-width="5" stroke-linecap="round"/>
<path d="M333.81 805.085C335.976 821.419 332.81 860.185 302.81 884.585" stroke="black" stroke-width="5" stroke-linecap="round"/>
<path d="M302.309 867.085C314.143 875.752 336.009 900.185 328.809 928.585C324.476 936.419 313.109 947.885 302.309 931.085C299.809 924.585 294.109 910.885 291.309 908.085C282.809 900.752 265.509 884.485 264.309 878.085C263.143 872.919 262.709 858.485 270.309 842.085C271.976 838.585 275.01 829.185 273.81 819.585" stroke="black" stroke-width="5" stroke-linecap="round"/>
<path d="M218.81 735.585C219.643 748.752 228.01 779.085 254.81 795.085" stroke="black" stroke-width="5" stroke-linecap="round"/>
<path d="M527.81 728.585C536.143 720.085 567.81 709.085 641.31 726.085C650.81 728.585 693.91 728.085 714.31 706.085M609.81 744.585C628.976 745.419 673.21 735.285 696.81 688.085" stroke="black" stroke-width="5" stroke-linecap="round"/>
<path d="M534.81 760.085C562.476 777.585 631.81 798.385 687.81 741.585" stroke="black" stroke-width="5" stroke-linecap="round"/>
<path d="M312.81 649.585C329.143 652.252 364.91 658.685 377.31 663.085C405.643 668.752 465.91 680.385 480.31 681.585C505.476 686.752 556.81 707.285 560.81 748.085" stroke="black" stroke-width="5" stroke-linecap="round"/>
<path d="M205.81 714.585C215.143 694.419 243.91 649.585 280.31 635.585M263.81 631.085C271.143 638.752 286.41 654.885 288.81 658.085" stroke="black" stroke-width="5" stroke-linecap="round"/>
<path d="M296.81 646.085C278.31 654.585 238.21 680.485 225.81 716.085" stroke="black" stroke-width="5" stroke-linecap="round"/>
<path d="M133.31 563.585C138.31 553.752 157.01 538.185 191.81 554.585" stroke="black" stroke-width="5" stroke-linecap="round"/>
<path d="M218.31 568.085C225.31 570.085 240.21 581.185 243.81 599.585C244.143 613.419 239.51 643.285 218.31 652.085C210.81 655.199 200.81 655.585 195.31 649.585C189.81 644.585 190.415 625.085 192.31 613.085C193.81 603.585 186.31 591.085 184.81 583.085C184.81 577.085 189.51 573.085 194.31 573.085" stroke="black" stroke-width="5" stroke-linecap="round"/>
<path d="M157.81 663.585C163.976 667.919 178.11 677.085 185.31 679.085C187.81 680.085 193.91 684.185 198.31 692.585" stroke="black" stroke-width="5" stroke-linecap="round"/>
<path d="M133.81 577.585C132.643 579.752 130.41 584.885 130.81 588.085" stroke="black" stroke-width="5" stroke-linecap="round"/>
<path d="M94.3099 589.085C93.4765 585.252 85.8098 577.085 78.8098 581.585C73.8098 585.585 71.6099 591.285 78.8099 598.085M120.31 650.585C126.476 649.919 140.71 648.985 148.31 650.585" stroke="black" stroke-width="5" stroke-linecap="round"/>
<path d="M81.8096 607.585C92.9762 618.419 122.11 638.185 149.31 630.585" stroke="black" stroke-width="5" stroke-linecap="round"/>
<path d="M123.31 631.085C116.143 630.085 99.0096 631.285 87.8096 644.085" stroke="black" stroke-width="5" stroke-linecap="round"/>
<path d="M771.31 55.0853C748.91 51.4853 743.643 37.5853 743.81 31.0853C743.522 28.2852 757.69 17.5854 764.81 12.5854C775.61 4.58545 791.977 3.25207 798.81 3.58538C815.21 1.58538 826.977 7.75202 830.81 11.0853C841.21 10.6853 853.477 32.9187 858.31 44.0853C864.71 52.0853 858.977 69.752 855.31 77.5853C847.71 89.9853 837.477 93.0853 833.31 93.0853C818.51 91.8853 811.477 74.5853 809.81 66.0853C807.01 63.6853 802.977 50.4187 801.31 44.0853L771.31 55.0853Z" fill="#C0AD92"/>
<path d="M929.31 501.085C902.51 516.685 801.81 517.585 754.81 516.085L767.31 851.585L753.31 889.085L834.31 903.585L848.81 666.085L929.31 877.585C928.91 881.985 916.476 890.419 910.31 894.085C911.11 894.885 947.643 900.752 965.81 903.585C978.21 903.585 979.976 890.252 979.31 883.585C981.31 873.185 964.81 800.585 956.31 765.585C951.11 745.585 929.81 621.919 919.81 562.585C925.41 557.385 928.476 519.419 929.31 501.085Z" fill="#D9D9D9"/>
<path d="M992.31 538.085C994.477 540.585 998.31 547.285 996.31 554.085C993.31 558.252 984.81 567.585 974.81 571.585C970.643 572.919 961.11 575.485 956.31 575.085C953.143 574.919 946.31 573.585 944.31 569.585C943.643 566.252 943.71 559.585 949.31 559.585" stroke="black" stroke-width="5" stroke-linecap="round"/>
<path d="M978.81 331.085C988.31 353.252 1004.81 405.085 1002.81 434.085C1002.48 451.252 998.71 492.685 986.31 521.085" stroke="black" stroke-width="5" stroke-linecap="round"/>
<path d="M943.309 525.585C939.643 526.752 931.909 530.685 930.309 537.085C929.809 539.252 930.409 544.885 936.809 550.085" stroke="black" stroke-width="5" stroke-linecap="round"/>
<path d="M928.81 361.085C936.81 378.085 950.878 416.085 953.31 431.585C955.976 448.585 960.31 488.385 956.31 511.585" stroke="black" stroke-width="5" stroke-linecap="round"/>
<path d="M976.31 302.585C957.976 316.419 917.91 344.085 904.31 344.085" stroke="black" stroke-width="5" stroke-linecap="round"/>
<path d="M870.31 191.085C879.976 194.752 898.31 200.585 903.31 204.585L965.31 281.585" stroke="black" stroke-width="5" stroke-linecap="round"/>
<path d="M981.81 901.085C982.976 913.585 981.31 939.585 961.31 955.585C950.81 964.585 929.31 967.97 924.31 967.585C917.81 967.085 901.81 963.985 895.81 959.585" stroke="black" stroke-width="5" stroke-linecap="round"/>
<path d="M918.81 918.585C910.976 918.919 895.31 923.585 895.31 936.085C895.81 942.585 898.81 944.153 904.31 946.585C912.976 950.419 934.61 956.185 951.81 948.585" stroke="black" stroke-width="5" stroke-linecap="round"/>
<path d="M800.81 548.585L923.81 866.585" stroke="black" stroke-width="5" stroke-linecap="round"/>
<path d="M926.81 604.585L974.31 864.085" stroke="black" stroke-width="5" stroke-linecap="round"/>
<path d="M896.81 884.585H951.31" stroke="black" stroke-width="5" stroke-linecap="round"/>
<path d="M921.81 899.085L950.81 901.085" stroke="black" stroke-width="5" stroke-linecap="round"/>
<path d="M827.81 903.085C828.81 904.419 831.31 907.085 833.31 907.085C835.81 907.085 846.31 639.585 846.81 630.085" stroke="black" stroke-width="5" stroke-linecap="round"/>
<path d="M730.31 945.585C736.81 951.085 756.21 962.485 781.81 964.085C791.976 965.752 814.01 964.685 820.81 947.085" stroke="black" stroke-width="5" stroke-linecap="round"/>
<path d="M837.81 955.085C820.976 961.252 775.31 971.485 727.31 963.085L718.81 962.085C710.309 961.085 693.309 951.586 690.309 946.585C687.81 942.418 690.938 936.038 693.31 932.085C696.31 927.085 701.509 920.385 710.309 919.585C715.143 919.252 726.509 918.785 733.309 919.585" stroke="black" stroke-width="5" stroke-linecap="round"/>
<path d="M743.31 907.585C748.976 912.752 760.41 923.385 760.81 924.585" stroke="black" stroke-width="5" stroke-linecap="round"/>
<path d="M756.31 902.085C761.81 906.252 773.21 915.285 774.81 918.085" stroke="black" stroke-width="5" stroke-linecap="round"/>
<path d="M749.31 849.585L792.81 877.085" stroke="black" stroke-width="5" stroke-linecap="round"/>
<path d="M745.81 885.085C765.476 891.419 806.31 902.085 809.81 902.085" stroke="black" stroke-width="5" stroke-linecap="round"/>
<path d="M427.31 231.085C413.643 233.752 384.11 245.785 375.31 272.585C374.884 273.88 374.31 275.985 380.31 275.585C387.81 275.085 405.81 264.085 409.81 258.085" stroke="black" stroke-width="5" stroke-linecap="round"/>
<path d="M474.31 304.085C467.477 303.585 449.81 294.585 446.31 290.585C444.369 288.367 444.01 287.585 442.81 287.585C440.81 287.585 438.81 294.585 434.81 296.585C431.404 298.288 427.31 301.585 420.81 294.585C414.31 287.585 428.81 271.085 428.81 270.585" stroke="black" stroke-width="5" stroke-linecap="round"/>
<path d="M441.81 234.085C452.143 237.585 472.71 251.385 472.31 278.585" stroke="black" stroke-width="5" stroke-linecap="round"/>
<path d="M488.81 299.085C510.143 305.419 571.01 315.985 643.81 307.585" stroke="black" stroke-width="5" stroke-linecap="round"/>
<path d="M452.81 256.085C484.476 261.419 566.71 266.585 642.31 244.585" stroke="black" stroke-width="5" stroke-linecap="round"/>
<path d="M801.81 225.085C806.143 229.419 813.778 238.585 817.81 238.585C821.31 238.585 844.476 203.085 856.31 185.085" stroke="black" stroke-width="5" stroke-linecap="round"/>
<path d="M752.31 492.085C759.643 604.919 774.71 832.285 776.31 839.085" stroke="black" stroke-width="5" stroke-linecap="round"/>
<path d="M833.81 150.585L836.81 182.085C836.81 183.085 835.31 185.71 833.81 187.585C831.81 190.085 770.31 260.585 767.31 262.085" stroke="black" stroke-width="5" stroke-linecap="round"/>
<path d="M680.81 319.085L721.81 331.085C721.81 331.085 727.01 332.685 727.81 337.085C728.61 341.485 735.476 413.585 738.81 449.085M718.81 508.585C741.143 515.419 807.81 524.985 895.81 508.585" stroke="black" stroke-width="5" stroke-linecap="round"/>
<path d="M650.81 225.585C679.31 218.419 736.91 204.085 739.31 204.085" stroke="black" stroke-width="5" stroke-linecap="round"/>
<path d="M666.81 333.585V210.585" stroke="black" stroke-width="5" stroke-linecap="round"/>
<path d="M766.81 189.585C770.976 200.752 779.31 223.685 779.31 226.085" stroke="black" stroke-width="5" stroke-linecap="round"/>
<path d="M756.31 182.085C755.643 193.252 754.41 215.985 754.81 217.585" stroke="black" stroke-width="5" stroke-linecap="round"/>
<path d="M738.31 103.085C736.477 124.085 739.11 167.985 764.31 175.585" stroke="black" stroke-width="5" stroke-linecap="round"/>
<path d="M759.81 116.085L766.81 121.585" stroke="black" stroke-width="5" stroke-linecap="round"/>
<path d="M755.81 133.585C762.643 136.585 780.11 139.785 795.31 128.585" stroke="black" stroke-width="5" stroke-linecap="round"/>
<path d="M787.31 134.585C791.143 143.085 793.31 158.685 773.31 159.085" stroke="black" stroke-width="5" stroke-linecap="round"/>
<path d="M744.81 80.5854V91.0854" stroke="black" stroke-width="5" stroke-linecap="round"/>
<path d="M784.81 79.5854V91.0854" stroke="black" stroke-width="5" stroke-linecap="round"/>
<path d="M740.31 33.5854C747.643 22.7521 770.51 1.48545 803.31 3.08545C813.81 3.41878 837.91 8.78545 850.31 27.5854C854.643 34.7521 862.61 52.0854 859.81 64.0854C858.976 68.4188 854.91 79.3854 845.31 88.5854" stroke="black" stroke-width="5" stroke-linecap="round"/>
<path d="M810.81 92.5854C818.976 92.0854 836.31 91.3854 840.31 92.5854" stroke="black" stroke-width="5" stroke-linecap="round"/>
<path d="M730.31 46.5854C733.143 50.7521 744.51 58.4854 767.31 56.0854C775.476 55.2521 792.51 50.4854 795.31 38.0854" stroke="black" stroke-width="5" stroke-linecap="round"/>
<path d="M808.81 46.5854C808.81 59.5854 812.01 86.3854 826.81 91.5854" stroke="black" stroke-width="5" stroke-linecap="round"/>
<path d="M836.81 129.585C845.81 130.419 863.51 126.485 862.31 104.085C862.143 101.752 859.81 96.6854 851.81 95.0854C847.31 93.0854 837.71 92.2854 835.31 105.085" stroke="black" stroke-width="5" stroke-linecap="round"/>
</svg>
